<?xml version="1.0" encoding="UTF-8" standalone="no"?>
<svg
   width="100"
   height="100"
   viewBox="0 0 79.856227 63.308"
   version="1.1"
   id="svg8"
   xmlns:xlink="http://www.w3.org/1999/xlink"
   xmlns="http://www.w3.org/2000/svg"
   xmlns:svg="http://www.w3.org/2000/svg"
   xmlns:rdf="http://www.w3.org/1999/02/22-rdf-syntax-ns#"
   xmlns:cc="http://creativecommons.org/ns#"
   xmlns:dc="http://purl.org/dc/elements/1.1/">
  <defs
     id="defs2">
    <linearGradient
       id="linearGradient1285">
      <stop
         style="stop-color:#ffffff;stop-opacity:1;"
         offset="0"
         id="stop1283" />
    </linearGradient>
    <linearGradient
       xlink:href="#linearGradient1285"
       id="linearGradient1287"
       x1="86.986099"
       y1="90.381439"
       x2="152.51767"
       y2="90.381439"
       gradientUnits="userSpaceOnUse" />
    <filter
       style="color-interpolation-filters:sRGB"
       id="filter2949"
       x="-0.10629625"
       y="-0.10730813"
       width="1.1942807"
       height="1.2093191">
      <feFlood
         flood-opacity="0.498039"
         flood-color="rgb(0,0,0)"
         result="flood"
         id="feFlood2939" />
      <feComposite
         in="flood"
         in2="SourceGraphic"
         operator="in"
         result="composite1"
         id="feComposite2941" />
      <feGaussianBlur
         in="composite1"
         stdDeviation="2.4024"
         result="blur"
         id="feGaussianBlur2943" />
      <feOffset
         dx="-1.2"
         dy="-0.299401"
         result="offset"
         id="feOffset2945" />
      <feComposite
         in="SourceGraphic"
         in2="offset"
         operator="over"
         result="composite2"
         id="feComposite2947" />
    </filter>
  </defs>
  <metadata
     id="metadata5">
    <rdf:RDF>
      <cc:Work
         rdf:about="">
        <dc:format>image/svg+xml</dc:format>
        <dc:type
           rdf:resource="http://purl.org/dc/dcmitype/StillImage" />
      </cc:Work>
    </rdf:RDF>
  </metadata>
  <g
     id="g1050"
     transform="matrix(0.72547151,0,0,0.72547151,10.737902,-2.7921122)">
    <path
       id="path871"
       style="fill:#ff1999;fill-opacity:1;stroke:none;stroke-width:0.195509px;stroke-linecap:butt;stroke-linejoin:miter;stroke-opacity:1"
       d="m 70.453828,36.554821 c 11.470788,0.490842 9.891179,13.539618 2.265676,14.696639 12.959519,1.809842 7.001445,16.427975 1.303207,16.117224 8.146339,8.916337 0.07407,19.910976 -9.718946,14.700901 2.224089,8.123039 -10.514472,12.387432 -13.274027,4.274593 -4.52866,13.578098 -16.80642,8.563861 -16.724807,2.230433 -4.137322,7.22577 -13.628804,2.716721 -13.589597,-2.928299 C 13.457091,89.792716 4.3932794,80.981643 9.4694138,74.270274 -0.41570816,74.031602 -0.18209405,61.826311 7.2191401,60.097524 8.9380031,60.796025 6.519874,63.248747 7.1989396,59.969557 -3.0345261,56.657227 -1.3297193,45.565251 5.9008896,45.671533 2.4506576,40.814172 8.0639492,34.091356 14.160825,34.780399" />
    <path
       id="path833"
       style="fill:url(#linearGradient1287);fill-opacity:1;stroke:none;stroke-width:0.264583px;stroke-linecap:butt;stroke-linejoin:miter;stroke-opacity:1;filter:url(#filter2949)"
       d="M 152.51767,103.85791 C 151.75029,81.0197 138.01643,62.17493 120.09727,62.12108 94.720993,62.04478 82.401383,95.31936 88.545293,111.45584 c 17.672797,13.96638 58.792787,5.47239 63.972377,-7.59793 z"
       transform="matrix(0.76517019,0,0,0.76517019,-51.660188,-42.892218)" />
    <circle
       style="fill:#676767;fill-opacity:1;stroke:none;stroke-width:2.63186;stroke-opacity:1"
       id="path885"
       cx="33.856693"
       cy="25.731058"
       r="1.9301358" />
    <circle
       style="fill:#676767;fill-opacity:1;stroke:none;stroke-width:2.63186;stroke-opacity:1"
       id="path887"
       cx="53.259651"
       cy="26.442171"
       r="2.234894" />
    <path
       id="path889"
       style="fill:none;stroke:#676767;stroke-width:0.72552;stroke-linecap:round;stroke-linejoin:round;stroke-miterlimit:4;stroke-dasharray:none;stroke-opacity:1"
       d="m 40.321709,27.13364 c -0.193397,1.494294 0.281567,2.915444 1.633944,3.192627 2.010431,0.41206 2.800408,-1.001325 3.50148,-2.632629" />
    <path
       id="path1651"
       style="fill:#ff6fbf;fill-opacity:1;stroke:none;stroke-width:0.163847px;stroke-linecap:butt;stroke-linejoin:miter;stroke-opacity:1"
       d="m 9.3998307,48.109632 c -6.1777806,-0.08737 -7.6346686,9.030388 1.1087363,11.753247 -0.0093,0.04293 -0.01229,0.07453 -0.02016,0.115065 -6.2862275,1.45279 -6.4683264,11.445148 1.960455,11.640948 -4.3370062,5.516992 3.406735,12.760013 9.608134,9.351509 -0.03352,4.64042 8.075994,8.346726 11.610896,2.406876 -0.06529,4.876446 9.133084,8.801413 13.478431,0.107554 -4.151073,1.546957 -8.704571,-1.130233 -8.659141,-4.241988 -3.445546,5.310969 -11.350174,1.996486 -11.317502,-2.152626 -6.044683,3.047635 -13.593158,-3.428498 -9.365744,-8.361396 -8.2159107,-0.175065 -8.0378933,-9.10969 -1.910238,-10.408447 0.0077,-0.0361 0.01041,-0.06421 0.01938,-0.102412 -6.730343,-1.922629 -7.2591883,-7.410608 -4.218658,-9.59548 -0.767468,-0.171934 -1.522504,-0.337861 -2.2945783,-0.51285 z m 43.0157543,29.49383 c -0.02682,0.07097 -0.05517,0.13879 -0.08264,0.208383 0.04156,-0.03955 0.07951,-0.07802 0.1206,-0.117438 -0.01243,-0.03058 -0.02598,-0.05987 -0.03796,-0.09095 z" />
    <path
       id="path862"
       style="fill:#ffb7df;fill-opacity:1;stroke:none;stroke-width:0.202451px;stroke-linecap:butt;stroke-linejoin:miter;stroke-opacity:1"
       d="m 65.234468,34.803996 -0.286673,0.01581 c 0.04212,0.582031 0.0743,1.167401 0.09411,1.756818 -3.963267,10.00102 -35.427016,16.500411 -48.949713,5.813753 -0.552686,-1.451582 -0.90783,-3.085783 -1.076709,-4.837084 l -0.499407,0.02728 C 3.9298724,49.387697 50.02036,61.919095 67.943837,39.087496 68.187911,36.052853 68.195908,35.143634 65.234468,34.80399 Z" />
  </g>
</svg>
