<?xml version="1.0" encoding="UTF-8" standalone="no" ?>
<svg
    width="200"
    height="100"
    viewBox="0 0 159.71247 63.308"
    version="1.1"
    id="svg8"
    xmlns:xlink="http://www.w3.org/1999/xlink"
    xmlns="http://www.w3.org/2000/svg"
    xmlns:svg="http://www.w3.org/2000/svg"
    xmlns:rdf="http://www.w3.org/1999/02/22-rdf-syntax-ns#"
    xmlns:cc="http://creativecommons.org/ns#"
    xmlns:dc="http://purl.org/dc/elements/1.1/"
>
  <defs id="defs2">
    <linearGradient id="linearGradient1285">
      <stop
                style="stop-color:#ffffff;stop-opacity:1;"
                offset="0"
                id="stop1283"
            />
    </linearGradient>
    <linearGradient
            xlink:href="#linearGradient1285"
            id="linearGradient1287"
            x1="86.986099"
            y1="90.381439"
            x2="152.51767"
            y2="90.381439"
            gradientUnits="userSpaceOnUse"
        />
    <filter
            style="color-interpolation-filters:sRGB"
            id="filter2949"
            x="-0.10629625"
            y="-0.10730813"
            width="1.1942807"
            height="1.2093191"
        >
      <feFlood
                flood-opacity="0.498039"
                flood-color="rgb(0,0,0)"
                result="flood"
                id="feFlood2939"
            />
      <feComposite
                in="flood"
                in2="SourceGraphic"
                operator="in"
                result="composite1"
                id="feComposite2941"
            />
      <feGaussianBlur
                in="composite1"
                stdDeviation="2.4024"
                result="blur"
                id="feGaussianBlur2943"
            />
      <feOffset dx="-1.2" dy="-0.299401" result="offset" id="feOffset2945" />
      <feComposite
                in="SourceGraphic"
                in2="offset"
                operator="over"
                result="composite2"
                id="feComposite2947"
            />
    </filter>
  </defs>
  <metadata id="metadata5">
    <rdf:RDF>
      <cc:Work rdf:about="">
        <dc:format>image/svg+xml</dc:format>
        <dc:type rdf:resource="http://purl.org/dc/dcmitype/StillImage" />
      </cc:Work>
    </rdf:RDF>
  </metadata>
  <g
        id="g3303"
        transform="matrix(0.60393392,7.2805355e-4,-7.2805355e-4,0.60393392,-103.38404,-43.600209)"
    >
    <g
            aria-label="lychee"
            id="text850"
            style="font-size:108.204px;line-height:1.25;font-family:'Fresh lychee';-inkscape-font-specification:'Fresh lychee, Normal';fill:#e7008e;stroke-width:2.7051"
            transform="translate(-25.769247,274.09113)"
        >
      <path
                d="m 240.25481,-129.1122 c -5.19379,-5.62661 -1.51485,-45.01287 -1.19024,-53.77739 0,-1.19024 -0.10821,-2.27228 -0.21641,-3.46253 -0.86563,-5.19379 -7.46608,-6.60044 -10.06297,-1.51485 -6.16763,12.11884 -13.3091,53.01996 -1.29845,64.16497 2.92151,2.48869 7.24967,3.46253 10.7122,2.16408 3.13791,-1.40665 4.76097,-5.4102 2.05587,-7.57428 z"
                id="path5637"
            />
      <path
                d="m 246.45794,-142.96231 c 2.92151,11.57782 15.90599,15.14856 23.04746,3.89534 1.51485,-2.27228 2.8133,-4.86918 4.00354,-7.24967 0.21641,4.43637 0.10821,12.44346 -2.05587,18.17827 -1.51486,4.00355 -5.73481,9.08914 -7.89889,2.4887 -0.54102,-1.73127 -1.73127,-2.81331 -3.46253,-3.02972 -2.05588,-0.1082 -3.46253,0.64923 -4.32816,2.05588 -1.40665,2.8133 -0.75743,6.05942 0.1082,9.08914 3.78714,12.76807 21.42439,11.68603 27.051,-0.97384 4.65278,-10.60399 1.08204,-28.24124 -0.86563,-37.43858 -1.73126,-7.35788 -7.89889,-6.70865 -9.95477,-0.86564 -1.51485,3.57074 -3.13791,6.60045 -4.43636,8.87273 -12.33526,21.5326 -8.0071,-8.87273 -1.94767,-17.31264 2.9215,-4.32816 -3.13792,-8.33171 -9.41375,-5.08559 -8.1153,3.89535 -12.55167,17.09624 -9.84657,27.37562 z"
                id="path5639"
            />
      <path
                d="m 310.31014,-164.2785 c 1.40666,-3.02971 5.51841,-8.22351 5.84302,-5.19379 0.75743,6.81685 8.65632,7.03326 9.30554,-2.27229 0.21641,-2.8133 -0.2164,-4.97738 -1.29844,-6.70865 -2.92151,-4.65277 -8.54812,-5.73481 -13.85012,-4.54456 -7.79068,1.73126 -13.41729,8.87272 -16.2306,16.447 -3.78714,9.95477 -3.35432,22.18182 1.40665,31.37916 6.81686,12.98448 21.4244,12.33526 26.29358,-2.59689 1.08204,-3.35433 1.73126,-6.81685 2.05587,-9.73836 0.43282,-5.302 -5.08558,-6.92506 -6.38403,-1.08204 -1.94767,20.55876 -8.76453,14.28293 -10.06297,2.27228 -0.64923,-6.70865 -0.43282,-10.8204 2.9215,-17.96186 z"
                id="path5641"
            />
      <path
                d="m 349.39207,-129.97783 c 0.86564,-2.16408 3.24612,-22.50644 8.22351,-19.26032 5.19379,3.46253 2.59689,14.28293 4.54457,19.69313 2.27228,6.16763 10.8204,5.302 9.84656,-0.43281 -1.29845,-7.46608 -0.54102,-15.25677 -3.78714,-22.50644 -3.57073,-7.89889 -12.55166,-8.43991 -17.63725,-2.27228 -4.11175,4.97738 -4.21996,5.302 -4.32816,0.97384 0,-9.84657 0.21641,-19.47672 1.08204,-29.86431 0,-9.08914 -8.0071,-9.30554 -11.46963,-1.51485 -3.24612,7.46607 -7.46607,35.3827 -2.9215,51.3969 1.29844,4.32816 3.57073,10.38758 9.30554,9.73836 2.92151,-0.21641 5.84302,-2.38049 7.14146,-5.95122 z"
                id="path5643"
            />
      <path
                d="m 391.5426,-144.47717 c 6.92505,2.38049 14.49933,-3.78714 15.68958,-10.8204 3.89534,-20.77517 -20.66697,-19.36852 -26.9428,-2.48869 -3.13792,8.54811 -2.5969,18.17827 1.29845,24.99512 6.70865,11.79424 18.61109,9.84657 25.64435,-2.7051 2.48869,-4.32816 -1.08204,-10.38758 -4.76098,-3.35432 -4.54457,7.89889 -13.95831,11.03681 -10.9286,-5.62661 z m 1.08204,-6.38404 c 0.54102,-5.4102 4.76097,-14.06652 7.89889,-13.20088 4.32816,4.65277 -0.21641,12.55166 -7.89889,13.20088 z m 31.92018,6.16763 c 8.65632,0.43282 13.6337,-8.43991 11.79423,-16.77162 -0.86563,-3.89534 -3.57073,-8.43991 -8.87272,-8.33171 -4.97739,0.32462 -9.41375,4.00355 -11.46963,8.87273 -3.46253,7.79069 -4.65277,20.88337 -0.32461,28.78227 4.86918,9.08913 16.98803,9.08913 20.55876,-2.27229 0.75743,-2.48869 1.19024,-5.30199 1.40665,-7.79069 0.64923,-4.11175 -4.54457,-4.32816 -5.4102,-0.75742 -0.75743,2.9215 -1.19024,4.65277 -1.94767,7.24966 -2.8133,6.81686 -6.81685,-1.94767 -5.73481,-8.98093 z m 0.54102,-6.70865 c 1.08204,-4.11175 2.59689,-7.79068 4.65277,-10.9286 3.67894,2.92151 1.94767,10.9286 -4.65277,10.9286 z"
                id="path5645"
            />
    </g>
    <path
            style="opacity:0.466667;fill:#ffffff;fill-opacity:1;stroke:none;stroke-width:0.264583px;stroke-linecap:butt;stroke-linejoin:miter;stroke-opacity:1"
            d="m 211.86761,150.54834 c -15.21065,1.27975 -15.55477,-18.79894 -14.97346,-32.55099 2.81561,22.2787 5.94096,24.46342 14.97346,32.55099 z"
            id="path1842"
        />
    <path
            style="opacity:0.466667;fill:#ffffff;fill-opacity:1;stroke:none;stroke-width:0.264583px;stroke-linecap:butt;stroke-linejoin:miter;stroke-opacity:1"
            d="m 225.86453,110.67337 c -6.3793,10.97618 -5.78028,31.91508 10.90459,28.80763 -15.01871,-8.73873 -11.69774,-18.58362 -10.90459,-28.80763 z"
            id="path2493"
        />
    <path
            style="opacity:0.466667;fill:#ffffff;fill-opacity:1;stroke:none;stroke-width:0.264583px;stroke-linecap:butt;stroke-linejoin:miter;stroke-opacity:1"
            d="m 230.78809,149.20539 c 0.29846,11.70617 5.25091,14.35061 13.50866,15.13622 -7.10705,-3.21463 -11.60401,-8.45341 -13.50866,-15.13622 z"
            id="path2661"
        />
    <path
            style="opacity:0.466667;fill:#ffffff;fill-opacity:1;stroke:none;stroke-width:0.264583px;stroke-linecap:butt;stroke-linejoin:miter;stroke-opacity:1"
            d="m 288.85071,144.36365 c -16.64632,7.11608 -26.42811,-20.22647 -19.20509,-29.45865 0.81406,-1.0405 3.60606,-0.0115 3.74335,1.30204 1.26663,12.11918 1.62757,28.15661 15.46174,28.15661 z"
            id="path2791"
        />
    <path
            style="opacity:0.466667;fill:#ffffff;fill-opacity:1;stroke:none;stroke-width:0.264583px;stroke-linecap:butt;stroke-linejoin:miter;stroke-opacity:1"
            d="m 323.02924,140.78304 c -12.4618,24.2735 -21.59292,-26.37688 -13.18316,-24.08773 2.3655,0.77157 1.95306,30.76068 13.18316,24.08773 z"
            id="path3514"
        />
    <path
            style="opacity:0.466667;fill:#ffffff;fill-opacity:1;stroke:none;stroke-width:0.264583px;stroke-linecap:butt;stroke-linejoin:miter;stroke-opacity:1"
            d="m 343.86187,145.34018 c -8.00178,3.57283 -6.84011,-6.73626 -7.81222,-14.15968 1.99742,7.4239 3.89552,13.70584 7.81222,14.15968 z"
            id="path3943"
        />
    <path
            style="opacity:0.466667;fill:#ffffff;fill-opacity:1;stroke:none;stroke-width:0.264583px;stroke-linecap:butt;stroke-linejoin:miter;stroke-opacity:1"
            d="m 357.85882,115.39326 c -0.66846,10.70133 0.61461,23.39575 5.37089,31.57447 -11.32261,-9.13143 -9.2694,-32.0618 -5.37089,-31.57447 z"
            id="path4035"
        />
    <path
            style="opacity:0.466667;fill:#ffffff;fill-opacity:1;stroke:none;stroke-width:0.264583px;stroke-linecap:butt;stroke-linejoin:miter;stroke-opacity:1"
            d="m 390.66716,121.74326 c 0.46105,11.05567 1.08599,16.24192 6.42922,25.22447 -9.58258,-5.24896 -9.6471,-23.1254 -6.42922,-25.22447 z"
            id="path4364"
        />
  </g>
</svg>
